<mxfile host="app.diagrams.net" agent="Mozilla/5.0 (Macintosh; Intel Mac OS X 10_15_7) AppleWebKit/537.36 (KHTML, like Gecko) Chrome/135.0.0.0 Safari/537.36" version="26.2.9">
  <diagram name="Page-1" id="jP8wNX44yFXA_O4VXuv-">
    <mxGraphModel dx="1151" dy="701" grid="1" gridSize="10" guides="1" tooltips="1" connect="1" arrows="1" fold="1" page="1" pageScale="1" pageWidth="827" pageHeight="1169" math="0" shadow="0">
      <root>
        <mxCell id="0" />
        <mxCell id="1" parent="0" />
        <mxCell id="fF9LGIGBuWzvxIElAqLz-9" value="&lt;p style=&quot;margin:0px;margin-top:4px;text-align:center;&quot;&gt;&lt;b&gt;Item&lt;/b&gt;&lt;/p&gt;&lt;hr size=&quot;1&quot; style=&quot;border-style:solid;&quot;&gt;&lt;p style=&quot;margin:0px;margin-left:4px;&quot;&gt;&amp;nbsp;+ item_id&lt;/p&gt;&lt;p style=&quot;margin:0px;margin-left:4px;&quot;&gt;&amp;nbsp;+ amount&lt;/p&gt;&lt;p style=&quot;margin:0px;margin-left:4px;&quot;&gt;&amp;nbsp;+ name&lt;/p&gt;&lt;p style=&quot;margin:0px;margin-left:4px;&quot;&gt;&amp;nbsp;+ metadata&lt;/p&gt;&lt;hr size=&quot;1&quot; style=&quot;border-style:solid;&quot;&gt;&lt;p style=&quot;margin:0px;margin-left:4px;&quot;&gt;+ getters()&lt;/p&gt;&lt;p style=&quot;margin:0px;margin-left:4px;&quot;&gt;+ setters()&lt;/p&gt;" style="verticalAlign=top;align=left;overflow=fill;html=1;whiteSpace=wrap;" vertex="1" parent="1">
          <mxGeometry x="810" y="360" width="160" height="140" as="geometry" />
        </mxCell>
        <mxCell id="fF9LGIGBuWzvxIElAqLz-10" value="&lt;p style=&quot;margin:0px;margin-top:4px;text-align:center;&quot;&gt;&lt;b&gt;Request&lt;/b&gt;&lt;/p&gt;&lt;hr size=&quot;1&quot; style=&quot;border-style:solid;&quot;&gt;&lt;p style=&quot;margin:0px;margin-left:4px;&quot;&gt;+ command: CommandType&lt;br&gt;+ user&lt;/p&gt;&lt;p style=&quot;margin:0px;margin-left:4px;&quot;&gt;+ quantity&lt;/p&gt;&lt;p style=&quot;margin:0px;margin-left:4px;&quot;&gt;+ item_id&lt;/p&gt;&lt;hr size=&quot;1&quot; style=&quot;border-style:solid;&quot;&gt;&lt;p style=&quot;margin:0px;margin-left:4px;&quot;&gt;&lt;br&gt;&lt;/p&gt;" style="verticalAlign=top;align=left;overflow=fill;html=1;whiteSpace=wrap;" vertex="1" parent="1">
          <mxGeometry x="464" y="568.02" width="190" height="100" as="geometry" />
        </mxCell>
        <mxCell id="fF9LGIGBuWzvxIElAqLz-11" value="&lt;p style=&quot;margin:0px;margin-top:4px;text-align:center;&quot;&gt;WareHouseService&lt;/p&gt;&lt;hr size=&quot;1&quot; style=&quot;border-style:solid;&quot;&gt;&lt;p style=&quot;margin:0px;margin-left:4px;&quot;&gt;+ warehouse: WareHouse # Considering only 1 warehouse for now.&lt;/p&gt;&lt;hr size=&quot;1&quot; style=&quot;border-style:solid;&quot;&gt;&lt;p style=&quot;margin:0px;margin-left:4px;&quot;&gt;+ process_request()&lt;/p&gt;&lt;p style=&quot;margin:0px;margin-left:4px;&quot;&gt;+ _add_item_in_warehouse()&lt;br&gt;+ _remove_item_from_warehouse()&lt;/p&gt;&lt;p style=&quot;margin:0px;margin-left:4px;&quot;&gt;+ _process_queued_requests()&lt;/p&gt;" style="verticalAlign=top;align=left;overflow=fill;html=1;whiteSpace=wrap;" vertex="1" parent="1">
          <mxGeometry x="340" y="40" width="200" height="160" as="geometry" />
        </mxCell>
        <mxCell id="fF9LGIGBuWzvxIElAqLz-12" value="&lt;p style=&quot;margin:0px;margin-top:4px;text-align:center;&quot;&gt;Warehouse&lt;/p&gt;&lt;hr size=&quot;1&quot; style=&quot;border-style:solid;&quot;&gt;&lt;p style=&quot;margin:0px;margin-left:4px;&quot;&gt;+ item_count_map&lt;/p&gt;&lt;p style=&quot;margin:0px;margin-left:4px;&quot;&gt;+ queued_request_map: &amp;lt;item_id: WaitingQueue&amp;gt;&lt;/p&gt;&lt;p style=&quot;margin:0px;margin-left:4px;&quot;&gt;+ processed_requests: List[Request]&lt;/p&gt;&lt;hr size=&quot;1&quot; style=&quot;border-style:solid;&quot;&gt;&lt;p style=&quot;margin:0px;margin-left:4px;&quot;&gt;+ getters()&lt;/p&gt;" style="verticalAlign=top;align=left;overflow=fill;html=1;whiteSpace=wrap;" vertex="1" parent="1">
          <mxGeometry x="540" y="230" width="190" height="110" as="geometry" />
        </mxCell>
        <mxCell id="fF9LGIGBuWzvxIElAqLz-13" value="&lt;p style=&quot;margin:0px;margin-top:4px;text-align:center;&quot;&gt;WaitingQueue&lt;/p&gt;&lt;hr size=&quot;1&quot; style=&quot;border-style:solid;&quot;&gt;&lt;p style=&quot;margin:0px;margin-left:4px;&quot;&gt;+ queued_requests: Queue&amp;lt;Request&amp;gt;&lt;/p&gt;&lt;hr size=&quot;1&quot; style=&quot;border-style:solid;&quot;&gt;&lt;p style=&quot;margin:0px;margin-left:4px;&quot;&gt;+ try_fulfilling_requests()&lt;/p&gt;" style="verticalAlign=top;align=left;overflow=fill;html=1;whiteSpace=wrap;" vertex="1" parent="1">
          <mxGeometry x="580" y="400" width="190" height="90" as="geometry" />
        </mxCell>
        <mxCell id="fF9LGIGBuWzvxIElAqLz-17" value="" style="endArrow=none;html=1;rounded=0;exitX=0.3;exitY=-0.033;exitDx=0;exitDy=0;exitPerimeter=0;" edge="1" parent="1" source="fF9LGIGBuWzvxIElAqLz-13">
          <mxGeometry width="50" height="50" relative="1" as="geometry">
            <mxPoint x="620" y="400" as="sourcePoint" />
            <mxPoint x="620" y="342" as="targetPoint" />
          </mxGeometry>
        </mxCell>
        <mxCell id="fF9LGIGBuWzvxIElAqLz-18" value="&lt;p style=&quot;margin:0px;margin-top:4px;text-align:center;&quot;&gt;User&lt;/p&gt;&lt;hr size=&quot;1&quot; style=&quot;border-style:solid;&quot;&gt;&lt;p style=&quot;margin:0px;margin-left:4px;&quot;&gt;+ user_id&lt;/p&gt;&lt;p style=&quot;margin:0px;margin-left:4px;&quot;&gt;+ user_metadata&lt;/p&gt;&lt;hr size=&quot;1&quot; style=&quot;border-style:solid;&quot;&gt;&lt;p style=&quot;margin:0px;margin-left:4px;&quot;&gt;&lt;br&gt;&lt;/p&gt;" style="verticalAlign=top;align=left;overflow=fill;html=1;whiteSpace=wrap;" vertex="1" parent="1">
          <mxGeometry x="414" y="728.02" width="190" height="80" as="geometry" />
        </mxCell>
        <mxCell id="fF9LGIGBuWzvxIElAqLz-19" value="" style="endArrow=none;html=1;rounded=0;entryX=0.463;entryY=1.044;entryDx=0;entryDy=0;entryPerimeter=0;exitX=0.842;exitY=0;exitDx=0;exitDy=0;exitPerimeter=0;" edge="1" parent="1" source="fF9LGIGBuWzvxIElAqLz-10" target="fF9LGIGBuWzvxIElAqLz-13">
          <mxGeometry width="50" height="50" relative="1" as="geometry">
            <mxPoint x="524" y="518.02" as="sourcePoint" />
            <mxPoint x="704.95" y="503.01" as="targetPoint" />
          </mxGeometry>
        </mxCell>
        <mxCell id="fF9LGIGBuWzvxIElAqLz-20" value="" style="endArrow=none;html=1;rounded=0;exitX=0.25;exitY=0;exitDx=0;exitDy=0;entryX=0.084;entryY=1.009;entryDx=0;entryDy=0;entryPerimeter=0;" edge="1" parent="1" source="fF9LGIGBuWzvxIElAqLz-10" target="fF9LGIGBuWzvxIElAqLz-12">
          <mxGeometry width="50" height="50" relative="1" as="geometry">
            <mxPoint x="500" y="560" as="sourcePoint" />
            <mxPoint x="540" y="350" as="targetPoint" />
          </mxGeometry>
        </mxCell>
        <mxCell id="fF9LGIGBuWzvxIElAqLz-21" value="" style="endArrow=none;html=1;rounded=0;entryX=1;entryY=0.5;entryDx=0;entryDy=0;exitX=0.206;exitY=-0.007;exitDx=0;exitDy=0;exitPerimeter=0;" edge="1" parent="1" source="fF9LGIGBuWzvxIElAqLz-9" target="fF9LGIGBuWzvxIElAqLz-12">
          <mxGeometry width="50" height="50" relative="1" as="geometry">
            <mxPoint x="590" y="530" as="sourcePoint" />
            <mxPoint x="640" y="480" as="targetPoint" />
          </mxGeometry>
        </mxCell>
        <mxCell id="fF9LGIGBuWzvxIElAqLz-22" value="" style="endArrow=none;html=1;rounded=0;entryX=0.305;entryY=1.02;entryDx=0;entryDy=0;entryPerimeter=0;exitX=0.468;exitY=0;exitDx=0;exitDy=0;exitPerimeter=0;" edge="1" parent="1" source="fF9LGIGBuWzvxIElAqLz-18" target="fF9LGIGBuWzvxIElAqLz-10">
          <mxGeometry width="50" height="50" relative="1" as="geometry">
            <mxPoint x="764" y="698.02" as="sourcePoint" />
            <mxPoint x="814" y="648.02" as="targetPoint" />
          </mxGeometry>
        </mxCell>
        <mxCell id="fF9LGIGBuWzvxIElAqLz-23" value="&lt;p style=&quot;margin:0px;margin-top:4px;text-align:center;&quot;&gt;RequestHandler&lt;/p&gt;&lt;hr size=&quot;1&quot; style=&quot;border-style:solid;&quot;&gt;&lt;p style=&quot;margin:0px;margin-left:4px;&quot;&gt;+ request_startegy: RequestStartegy&lt;/p&gt;&lt;hr size=&quot;1&quot; style=&quot;border-style:solid;&quot;&gt;&lt;p style=&quot;margin:0px;margin-left:4px;&quot;&gt;+ process_request()&lt;/p&gt;" style="verticalAlign=top;align=left;overflow=fill;html=1;whiteSpace=wrap;" vertex="1" parent="1">
          <mxGeometry x="200" y="232.5" width="190" height="115" as="geometry" />
        </mxCell>
        <mxCell id="fF9LGIGBuWzvxIElAqLz-24" value="&lt;p style=&quot;margin:0px;margin-top:4px;text-align:center;&quot;&gt;RequestStrategy&lt;/p&gt;&lt;p style=&quot;margin:0px;margin-top:4px;text-align:center;&quot;&gt;&amp;lt;&amp;lt;AbstractClass&amp;gt;&amp;gt;&lt;/p&gt;&lt;hr size=&quot;1&quot; style=&quot;border-style:solid;&quot;&gt;&lt;p style=&quot;margin:0px;margin-left:4px;&quot;&gt;+ warehouse_service: WarehouseService&lt;/p&gt;&lt;hr size=&quot;1&quot; style=&quot;border-style:solid;&quot;&gt;&lt;p style=&quot;margin:0px;margin-left:4px;&quot;&gt;+ process_request()&lt;/p&gt;" style="verticalAlign=top;align=left;overflow=fill;html=1;whiteSpace=wrap;" vertex="1" parent="1">
          <mxGeometry x="130" y="377.5" width="190" height="90" as="geometry" />
        </mxCell>
        <mxCell id="fF9LGIGBuWzvxIElAqLz-25" value="" style="endArrow=classic;html=1;rounded=0;" edge="1" parent="1">
          <mxGeometry width="50" height="50" relative="1" as="geometry">
            <mxPoint x="140" y="517.5" as="sourcePoint" />
            <mxPoint x="190" y="467.5" as="targetPoint" />
          </mxGeometry>
        </mxCell>
        <mxCell id="fF9LGIGBuWzvxIElAqLz-26" value="&lt;p style=&quot;margin:0px;margin-top:4px;text-align:center;&quot;&gt;AdditionRequestStartegy&lt;/p&gt;&lt;hr size=&quot;1&quot; style=&quot;border-style:solid;&quot;&gt;&lt;p style=&quot;margin:0px;margin-left:4px;&quot;&gt;&lt;br&gt;&lt;/p&gt;&lt;hr size=&quot;1&quot; style=&quot;border-style:solid;&quot;&gt;&lt;p style=&quot;margin:0px;margin-left:4px;&quot;&gt;+ process_request()&lt;/p&gt;" style="verticalAlign=top;align=left;overflow=fill;html=1;whiteSpace=wrap;" vertex="1" parent="1">
          <mxGeometry x="20" y="517.5" width="190" height="110" as="geometry" />
        </mxCell>
        <mxCell id="fF9LGIGBuWzvxIElAqLz-27" value="&lt;p style=&quot;margin:0px;margin-top:4px;text-align:center;&quot;&gt;RemovalRequestStrategy&lt;/p&gt;&lt;hr size=&quot;1&quot; style=&quot;border-style:solid;&quot;&gt;&lt;p style=&quot;margin:0px;margin-left:4px;&quot;&gt;&lt;br&gt;&lt;/p&gt;&lt;hr size=&quot;1&quot; style=&quot;border-style:solid;&quot;&gt;&lt;p style=&quot;margin:0px;margin-left:4px;&quot;&gt;+ process_request()&lt;/p&gt;" style="verticalAlign=top;align=left;overflow=fill;html=1;whiteSpace=wrap;" vertex="1" parent="1">
          <mxGeometry x="250" y="517.5" width="180" height="110" as="geometry" />
        </mxCell>
        <mxCell id="fF9LGIGBuWzvxIElAqLz-28" value="" style="endArrow=classic;html=1;rounded=0;exitX=0.5;exitY=0;exitDx=0;exitDy=0;entryX=0.75;entryY=1;entryDx=0;entryDy=0;" edge="1" parent="1" source="fF9LGIGBuWzvxIElAqLz-27" target="fF9LGIGBuWzvxIElAqLz-24">
          <mxGeometry width="50" height="50" relative="1" as="geometry">
            <mxPoint x="610" y="880" as="sourcePoint" />
            <mxPoint x="660" y="830" as="targetPoint" />
          </mxGeometry>
        </mxCell>
        <mxCell id="fF9LGIGBuWzvxIElAqLz-29" value="" style="endArrow=none;html=1;rounded=0;entryX=0.326;entryY=1;entryDx=0;entryDy=0;entryPerimeter=0;exitX=0.5;exitY=0;exitDx=0;exitDy=0;" edge="1" parent="1" source="fF9LGIGBuWzvxIElAqLz-24" target="fF9LGIGBuWzvxIElAqLz-23">
          <mxGeometry width="50" height="50" relative="1" as="geometry">
            <mxPoint x="220" y="367.5" as="sourcePoint" />
            <mxPoint x="270" y="297.5" as="targetPoint" />
          </mxGeometry>
        </mxCell>
        <mxCell id="fF9LGIGBuWzvxIElAqLz-31" value="" style="endArrow=none;html=1;rounded=0;entryX=0.85;entryY=1.007;entryDx=0;entryDy=0;entryPerimeter=0;" edge="1" parent="1" source="fF9LGIGBuWzvxIElAqLz-12" target="fF9LGIGBuWzvxIElAqLz-11">
          <mxGeometry width="50" height="50" relative="1" as="geometry">
            <mxPoint x="430" y="390" as="sourcePoint" />
            <mxPoint x="480" y="340" as="targetPoint" />
          </mxGeometry>
        </mxCell>
        <mxCell id="fF9LGIGBuWzvxIElAqLz-32" value="" style="endArrow=none;html=1;rounded=0;entryX=0.25;entryY=1;entryDx=0;entryDy=0;exitX=0.75;exitY=0;exitDx=0;exitDy=0;" edge="1" parent="1" source="fF9LGIGBuWzvxIElAqLz-23" target="fF9LGIGBuWzvxIElAqLz-11">
          <mxGeometry width="50" height="50" relative="1" as="geometry">
            <mxPoint x="460" y="380" as="sourcePoint" />
            <mxPoint x="510" y="330" as="targetPoint" />
          </mxGeometry>
        </mxCell>
        <mxCell id="fF9LGIGBuWzvxIElAqLz-34" value="" style="endArrow=none;html=1;rounded=0;entryX=0.6;entryY=1.021;entryDx=0;entryDy=0;entryPerimeter=0;exitX=0.074;exitY=-0.02;exitDx=0;exitDy=0;exitPerimeter=0;" edge="1" parent="1" source="fF9LGIGBuWzvxIElAqLz-10" target="fF9LGIGBuWzvxIElAqLz-11">
          <mxGeometry width="50" height="50" relative="1" as="geometry">
            <mxPoint x="460" y="410" as="sourcePoint" />
            <mxPoint x="510" y="360" as="targetPoint" />
          </mxGeometry>
        </mxCell>
      </root>
    </mxGraphModel>
  </diagram>
</mxfile>
